<?xml version="1.0" encoding="utf-8"?>
<!-- Generator: Adobe Illustrator 22.1.0, SVG Export Plug-In . SVG Version: 6.00 Build 0)  -->
<svg version="1.1" id="Capa_1" xmlns="http://www.w3.org/2000/svg" xmlns:xlink="http://www.w3.org/1999/xlink" x="0px" y="0px"
	 viewBox="0 0 330 330" style="enable-background:new 0 0 330 330;" xml:space="preserve">
<style type="text/css">
	.st0{fill:#FFFFFF;}
</style>
<path class="st0" d="M165,0C74,0,0,74,0,165c0,91,74,165,165,165s165-74,165-165C330,74,256,0,165,0z M165,300
	c-74.4,0-135-60.6-135-135S90.6,30,165,30s135,60.6,135,135S239.4,300,165,300z"/>
<path class="st0" d="M211.7,157.1L180,188.8V105c0-8.3-6.7-15-15-15s-15,6.7-15,15v83.8l-31.7-31.7c-5.9-5.9-15.4-5.9-21.2,0
	c-5.9,5.9-5.9,15.4,0,21.2l57.3,57.3c2.9,2.9,6.8,4.4,10.6,4.4s7.7-1.5,10.6-4.4l57.3-57.3c5.9-5.9,5.9-15.4,0-21.2
	C227,151.3,217.5,151.3,211.7,157.1z"/>
</svg>
