<?xml version="1.0" encoding="utf-8"?>
<!-- Generator: Adobe Illustrator 22.1.0, SVG Export Plug-In . SVG Version: 6.00 Build 0)  -->
<svg version="1.1" id="Layer_1" xmlns="http://www.w3.org/2000/svg" xmlns:xlink="http://www.w3.org/1999/xlink" x="0px" y="0px"
	 viewBox="0 0 40 40" style="enable-background:new 0 0 40 40;" xml:space="preserve">
<style type="text/css">
	.st0{fill:none;stroke:#FFFFFF;stroke-width:1.5;stroke-miterlimit:10;}
	.st1{fill:#FFFFFF;stroke:#FFFFFF;stroke-width:0.5;stroke-miterlimit:10;}
	.st2{fill:none;stroke:#FFFFFF;stroke-miterlimit:10;}
</style>
<path class="st0" d="M16,31.5H6c-1.4,0-2.5-1.1-2.5-2.5V7c0-1.4,1.1-2.5,2.5-2.5h10"/>
<g>
	<path class="st1" d="M34,5c0.6,0,1,0.4,1,1v27c0,0.6-0.4,1-1,1H21c-0.6,0-1-0.4-1-1V6c0-0.6,0.4-1,1-1H34 M34,4H21
		c-1.1,0-2,0.9-2,2v27c0,1.1,0.9,2,2,2h13c1.1,0,2-0.9,2-2V6C36,4.9,35.1,4,34,4L34,4z"/>
</g>
<g>
	<line class="st2" x1="9.5" y1="35.5" x2="15.5" y2="35.5"/>
</g>
<circle class="st2" cx="27.5" cy="25.5" r="4"/>
<line class="st2" x1="24.5" y1="16.5" x2="30.5" y2="16.5"/>
</svg>
