<?xml version="1.0" encoding="utf-8"?>
<!-- Generator: Adobe Illustrator 22.1.0, SVG Export Plug-In . SVG Version: 6.00 Build 0)  -->
<svg version="1.1" id="Capa_1" xmlns="http://www.w3.org/2000/svg" xmlns:xlink="http://www.w3.org/1999/xlink" x="0px" y="0px"
	 viewBox="0 0 51.4 51.4" style="enable-background:new 0 0 51.4 51.4;" xml:space="preserve">
<style type="text/css">
	.st0{fill:#FFFFFF;}
</style>
<g>
	<path class="st0" d="M1.7,25.2c0.6,0,1-0.4,1-1c0-6.1,4.9-11,11-11h24v9l13.7-10l-13.7-10v9h-24c-7.2,0-13,5.8-13,13
		C0.7,24.8,1.1,25.2,1.7,25.2z"/>
	<path class="st0" d="M49.7,26.2c-0.6,0-1,0.4-1,1c0,6.1-4.9,11-11,11h-24v-9L0,39.2l13.7,10v-9h24c7.2,0,13-5.8,13-13
		C50.7,26.6,50.3,26.2,49.7,26.2z"/>
</g>
</svg>
